<svg width="250" id="Слой_1" data-name="Слой 1" xmlns="http://www.w3.org/2000/svg" viewBox="0 0 246 44.76"><path d="M72.44 24.1a1.41 1.41 0 01-.35 1 1.24 1.24 0 01-1 .39 1.32 1.32 0 01-1.19-.72l-4.53-8h-3.8V24a1.59 1.59 0 01-.38 1 1.34 1.34 0 01-2 0 1.55 1.55 0 01-.36-1V4.32a1.52 1.52 0 01.39-1.08 1.3 1.3 0 011-.42h4.74a6.89 6.89 0 013.49.89 6.27 6.27 0 012.39 2.53 7.84 7.84 0 01.84 3.76 7 7 0 01-1 3.65A6.06 6.06 0 0168.15 16l4 7.13a1.88 1.88 0 01.29.97zM64.94 14a4.11 4.11 0 003-1.11A3.86 3.86 0 0069.05 10a4.36 4.36 0 00-1.16-3.13 3.92 3.92 0 00-3-1.22h-3.32V14zm23.12-4a1.56 1.56 0 01.37 1.07V24a1.56 1.56 0 01-.37 1 1.24 1.24 0 01-1 .42 1.26 1.26 0 01-1-.42 1.52 1.52 0 01-.32-1v-.32a5.82 5.82 0 01-2 1.43 6.08 6.08 0 01-2.48.51 6.19 6.19 0 01-3.26-.88 5.93 5.93 0 01-2.27-2.54 9.1 9.1 0 01-.81-4v-7.15A1.55 1.55 0 0175.3 10a1.31 1.31 0 011.92 0 1.5 1.5 0 01.38 1.06v7.14a5 5 0 001.15 3.55 4 4 0 003 1.2 4.16 4.16 0 002-.49 3.67 3.67 0 001.42-1.34 3.53 3.53 0 00.51-1.88v-8.19a1.52 1.52 0 01.44-1.05 1.28 1.28 0 011-.41 1.27 1.27 0 01.94.41zm15.53.33a5.9 5.9 0 012.27 2.53 9.15 9.15 0 01.82 4V24a1.49 1.49 0 01-.39 1.06 1.23 1.23 0 01-1 .42 1.26 1.26 0 01-1-.42A1.53 1.53 0 01104 24v-7.12a4.92 4.92 0 00-1.15-3.55 4 4 0 00-3-1.21 4.13 4.13 0 00-2 .5A3.65 3.65 0 0096.37 14a3.49 3.49 0 00-.52 1.89V24a1.52 1.52 0 01-.37 1.06 1.32 1.32 0 01-1.93 0 1.48 1.48 0 01-.38-1.06V11.08a1.48 1.48 0 01.38-1.08 1.34 1.34 0 011.93 0 1.52 1.52 0 01.37 1.07v.32a5.85 5.85 0 012-1.44 6.28 6.28 0 012.48-.5 6.19 6.19 0 013.26.88zm9.68 14.15a6.63 6.63 0 01-2.88-3.34 1.62 1.62 0 01-.13-.58 1.08 1.08 0 01.29-.76 1.33 1.33 0 01.79-.45.79.79 0 01.26 0 1.35 1.35 0 01.8.27 1.61 1.61 0 01.57.74 4.1 4.1 0 001.87 1.92 6.21 6.21 0 003.08.78 5.47 5.47 0 003.34-1 3.2 3.2 0 001.37-2.74 3.86 3.86 0 00-1.16-2.83A5.7 5.7 0 00118 15a8.6 8.6 0 01-5.14-2.1 5.75 5.75 0 01-1.87-4.39 5.39 5.39 0 011-3.21 6.15 6.15 0 012.64-2.06 9.53 9.53 0 013.75-.71 6.82 6.82 0 013.82 1 8.35 8.35 0 012.63 2.9 2.14 2.14 0 01.32 1 1.27 1.27 0 01-.53 1.05 1.19 1.19 0 01-.69.2 1.3 1.3 0 01-.73-.22 1.38 1.38 0 01-.53-.59 5.33 5.33 0 00-1.78-2 5 5 0 00-2.7-.68 5.56 5.56 0 00-3.23.86 2.81 2.81 0 00-1.24 2.48 3.31 3.31 0 001.1 2.52 7.08 7.08 0 004 1.33 7.9 7.9 0 014.9 2.1 6.3 6.3 0 011.74 4.63 6.12 6.12 0 01-1 3.58 6.19 6.19 0 01-2.89 2.31 9 9 0 01-3.65.74 8.78 8.78 0 01-4.65-1.26zm34.81-13.37a6.89 6.89 0 011.41 4.61V24a1.52 1.52 0 01-.37 1.06 1.32 1.32 0 01-1.93 0 1.48 1.48 0 01-.38-1.06v-8.28A3.92 3.92 0 00146 13a2.7 2.7 0 00-2.14-.92 2.79 2.79 0 00-2.25 1.05 4 4 0 00-.89 2.67V24a1.52 1.52 0 01-.37 1.06 1.32 1.32 0 01-1.93 0A1.48 1.48 0 01138 24v-8.28a3.92 3.92 0 00-.81-2.68 2.7 2.7 0 00-2.14-.92 2.85 2.85 0 00-2.28 1.05 4 4 0 00-.88 2.67V24a1.52 1.52 0 01-.37 1.06 1.24 1.24 0 01-1 .42 1.26 1.26 0 01-1-.42 1.53 1.53 0 01-.38-1.06V11.11a1.52 1.52 0 01.38-1.07 1.29 1.29 0 011-.41 1.23 1.23 0 01.94.39 1.54 1.54 0 01.4 1 4.78 4.78 0 011.63-1.17 5 5 0 012.06-.42 4.9 4.9 0 012.4.59 4.77 4.77 0 011.76 1.7 5.42 5.42 0 012-1.68 5.63 5.63 0 012.63-.61 4.63 4.63 0 013.74 1.68zm16.07-.57a7.61 7.61 0 012.6 2.9 8.77 8.77 0 011 4.11V24a1.49 1.49 0 01-.39 1.06 1.23 1.23 0 01-1 .42 1.26 1.26 0 01-1-.42A1.53 1.53 0 01165 24v-1.06a6.59 6.59 0 01-2.24 1.94 5.94 5.94 0 01-2.84.7 6 6 0 01-3.44-1 7.11 7.11 0 01-2.42-2.89 9.33 9.33 0 01-.88-4.1 8.88 8.88 0 01.94-4.11 7.5 7.5 0 012.62-2.9 6.84 6.84 0 013.7-1 6.72 6.72 0 013.71.96zm-1.29 11.72a4.88 4.88 0 001.67-1.94 6.26 6.26 0 00.6-2.77 6.34 6.34 0 00-.6-2.79 4.84 4.84 0 00-1.67-1.95 4.36 4.36 0 00-4.77 0 5 5 0 00-1.69 1.95 6.21 6.21 0 00-.61 2.79 6.13 6.13 0 00.61 2.77 5 5 0 001.69 1.94 4.36 4.36 0 004.77 0zM181 9.89a1.35 1.35 0 01.79 1.16 1 1 0 010 .29 1 1 0 01-1.05.93 1.85 1.85 0 01-.39-.06 10.07 10.07 0 00-1.72-.2 4.62 4.62 0 00-3.05 1 3.16 3.16 0 00-1.16 2.58V24a1.59 1.59 0 01-.33 1.08 1.25 1.25 0 01-1 .37 1.28 1.28 0 01-1-.36 1.52 1.52 0 01-.34-1.09V11a1.53 1.53 0 01.34-1.07 1.25 1.25 0 011-.38c.88 0 1.32.49 1.32 1.45v.55a5.68 5.68 0 012-1.59 5.41 5.41 0 012.47-.58 4.35 4.35 0 012.12.51zM191.45 23a1.6 1.6 0 01.33 1 1.37 1.37 0 01-.43 1 1.57 1.57 0 01-1.12.4h-.47a4 4 0 01-2.36-.73 5 5 0 01-1.67-2 6.53 6.53 0 01-.61-2.87v-7.12h-1.21a1.18 1.18 0 01-1.24-1.22 1.29 1.29 0 01.34-.93 1.22 1.22 0 01.9-.35h1.21V6a1.48 1.48 0 01.37-1 1.21 1.21 0 01.95-.4 1.24 1.24 0 01.95.4 1.52 1.52 0 01.36 1v4.17H190a1.22 1.22 0 01.9.35 1.25 1.25 0 01.34.93 1.18 1.18 0 01-.34.87 1.22 1.22 0 01-.9.35h-2.24v7.16a3.21 3.21 0 00.58 1.94 1.73 1.73 0 001.43.78h.89a1 1 0 01.79.45zM58.11 38.92a3.2 3.2 0 014.57 0 3.31 3.31 0 010 4.64 3.2 3.2 0 01-4.57 0 3.2 3.2 0 01-1-2.32v-2.37a3.2 3.2 0 011-2.32 3.09 3.09 0 012.29-1h.26a4 4 0 001.84-.42.46.46 0 01.21-.05.45.45 0 01.32.14.45.45 0 01.14.33.49.49 0 01-.13.33.38.38 0 01-.13.09 4.78 4.78 0 01-2.25.52h-.26a2.21 2.21 0 00-1.64.69 2.27 2.27 0 00-.68 1.65zm4.63 2.3a2.29 2.29 0 00-.68-1.66 2.28 2.28 0 00-3.27 0 2.37 2.37 0 000 3.32 2.31 2.31 0 003.27 0 2.29 2.29 0 00.68-1.66zm6.86 1.69a.44.44 0 01.46.46.48.48 0 01-.13.34 3.21 3.21 0 01-4.4-.17 3.33 3.33 0 010-4.64 3.21 3.21 0 014.58 0 3.19 3.19 0 011 2.32.48.48 0 01-.47.47h-5a2.32 2.32 0 00.64 1.19 2.22 2.22 0 001.63.68 2.11 2.11 0 001.4-.56.5.5 0 01.29-.09zm.49-2.16a2.3 2.3 0 00-3.9-1.19 2.29 2.29 0 00-.64 1.19zM72.91 44a.48.48 0 01-.47.47.45.45 0 01-.32-.14A.45.45 0 0172 44v-4.19a1.83 1.83 0 01.54-1.33 1.79 1.79 0 011.31-.54h1.85a.44.44 0 01.33.13.48.48 0 01.13.34.48.48 0 01-.13.33.44.44 0 01-.33.13h-1.87a.94.94 0 00-.92.94zm9.45-.49a3.13 3.13 0 01-2.31 1 3.09 3.09 0 01-2.29-1 3.31 3.31 0 010-4.64 3.09 3.09 0 012.29-1 3.12 3.12 0 012.29 1 3.18 3.18 0 01.94 2.32V44a.44.44 0 01-.13.33.46.46 0 01-.66 0 .44.44 0 01-.13-.33zm-2.31-4.64a2.21 2.21 0 00-1.64.69 2.39 2.39 0 000 3.32 2.24 2.24 0 001.64.68 2.22 2.22 0 001.63-.68 2.37 2.37 0 000-3.32 2.19 2.19 0 00-1.63-.69zM90.22 44a.48.48 0 01-.47.47.45.45 0 01-.32-.14.45.45 0 01-.14-.33v-.38a2.85 2.85 0 01-2.08.85 2.89 2.89 0 01-2.12-.89 3 3 0 01-.88-2.16v-3a.48.48 0 01.13-.34.48.48 0 01.66 0 .48.48 0 01.13.34v3a2.07 2.07 0 00.61 1.49 2 2 0 001.47.62 1.94 1.94 0 001.47-.62 2 2 0 00.61-1.49v-3a.49.49 0 01.14-.34.44.44 0 01.32-.13.44.44 0 01.33.13.49.49 0 01.14.34zm-4.82-8.2a.44.44 0 01.13-.33.46.46 0 01.66 0 .44.44 0 01.13.33q0 .2.27.33a1.49 1.49 0 00.66.14 1.45 1.45 0 00.65-.14c.19-.09.28-.2.28-.33a.44.44 0 01.13-.33.46.46 0 01.66 0 .44.44 0 01.13.33 1.25 1.25 0 01-.54 1 2.13 2.13 0 01-1.31.41 2.05 2.05 0 01-1.31-.41 1.23 1.23 0 01-.54-.97zM98 38.19l2.56 5.66a.41.41 0 010 .19.45.45 0 01-.14.33.44.44 0 01-.32.13.44.44 0 01-.33-.13.62.62 0 01-.09-.12l-2.13-4.71-2.12 4.71a.62.62 0 01-.09.12.46.46 0 01-.79-.33.58.58 0 010-.19l2.57-5.66a.52.52 0 01.07-.11.44.44 0 01.33-.13.42.42 0 01.33.13.35.35 0 01.15.11zm8.56 4.72a.44.44 0 01.32.13.45.45 0 01.14.33.48.48 0 01-.13.34 3.21 3.21 0 01-4.4-.17 3.31 3.31 0 010-4.64 3.09 3.09 0 012.29-1 3.12 3.12 0 012.29 1 3.18 3.18 0 01.94 2.32.44.44 0 01-.13.33.45.45 0 01-.33.14h-5a2.31 2.31 0 002.27 1.87 2.13 2.13 0 001.49-.56.48.48 0 01.25-.09zm.49-2.16a2.29 2.29 0 00-.64-1.19 2.31 2.31 0 00-3.9 1.19zm2.81 3.25a.44.44 0 01-.13.33.46.46 0 01-.66 0 .44.44 0 01-.13-.33v-4.19a1.83 1.83 0 01.54-1.33 1.77 1.77 0 011.31-.54h1.85a.44.44 0 01.32.13.49.49 0 01.14.34.49.49 0 01-.14.33.44.44 0 01-.32.13h-1.85a.91.91 0 00-.66.28.9.9 0 00-.27.66zm4.14-5.59a.49.49 0 01.14-.34.44.44 0 01.32-.13.44.44 0 01.33.13.49.49 0 01.14.34V41l3.39-2.92a.46.46 0 01.3-.11.44.44 0 01.33.13.49.49 0 01.14.34.45.45 0 01-.14.32l-2.85 2.44 2.9 2.5a.47.47 0 01-.33.8.48.48 0 01-.3-.11l-3-2.57-.44.38V44a.48.48 0 01-.47.47.45.45 0 01-.32-.14.45.45 0 01-.14-.33zm12.23 2.81a3.16 3.16 0 01-1 2.32 3.2 3.2 0 01-4.57 0 3.31 3.31 0 010-4.64 3.2 3.2 0 014.57 0 3.15 3.15 0 011 2.32zM123 38.87a2.21 2.21 0 00-1.64.69 2.37 2.37 0 000 3.32 2.24 2.24 0 001.64.68 2.22 2.22 0 001.63-.68 2.37 2.37 0 000-3.32 2.19 2.19 0 00-1.63-.69zm8.08 2.82a.45.45 0 01-.32-.14.46.46 0 010-.66.41.41 0 01.32-.14h2.78a.4.4 0 01.32.14.46.46 0 010 .66.43.43 0 01-.32.14zM141 44l-2.22-5.4a.5.5 0 010-.21.49.49 0 01.14-.34.44.44 0 01.32-.13.44.44 0 01.33.13.49.49 0 01.11.18l1.88 4.55 1.87-4.55a.49.49 0 01.11-.18.44.44 0 01.33-.13.44.44 0 01.32.13.49.49 0 01.14.34.5.5 0 010 .21l-3.57 8.4a.48.48 0 01-.44.31.41.41 0 01-.32-.14.45.45 0 01-.14-.33.46.46 0 010-.21zm4.18-5.59a.49.49 0 01.14-.34.44.44 0 01.33-.13.44.44 0 01.32.13.49.49 0 01.14.34V41l3.39-2.92a.47.47 0 01.31-.11.44.44 0 01.32.13.49.49 0 01.14.34.48.48 0 01-.13.32l-2.88 2.47 2.88 2.5a.49.49 0 01.13.33.45.45 0 01-.14.33.45.45 0 01-.32.14.44.44 0 01-.3-.11l-3-2.57-.44.38V44a.45.45 0 01-.14.33.45.45 0 01-.32.14.48.48 0 01-.47-.47zm6.94 8.43a.45.45 0 01-.14.33.42.42 0 01-.33.14.41.41 0 01-.32-.14.45.45 0 01-.14-.33v-5.62a3.19 3.19 0 01.95-2.32 3.21 3.21 0 014.58 0 3.33 3.33 0 010 4.64 3.21 3.21 0 01-4.58 0zm0-5.62a2.28 2.28 0 00.67 1.66 2.24 2.24 0 001.64.68 2.22 2.22 0 001.63-.68 2.37 2.37 0 000-3.32 2.28 2.28 0 00-3.27 0 2.28 2.28 0 00-.67 1.66zm11.48 1.69a.44.44 0 01.33.13.45.45 0 01.14.33.49.49 0 01-.14.34 3.2 3.2 0 01-4.39-.17 3.31 3.31 0 010-4.64 3.2 3.2 0 014.57 0 3.19 3.19 0 01.95 2.32.42.42 0 01-.14.33.43.43 0 01-.32.14h-5a2.32 2.32 0 00.64 1.19 2.22 2.22 0 001.63.68 2.11 2.11 0 001.49-.56.52.52 0 01.24-.09zm.5-2.16a2.29 2.29 0 00-.64-1.19 2.28 2.28 0 00-3.27 0 2.29 2.29 0 00-.64 1.19zm1.9-2.34a.49.49 0 01.14-.34.44.44 0 01.33-.13.44.44 0 01.32.13.49.49 0 01.14.34v.38a3 3 0 014.2 0A2.94 2.94 0 01172 41v3a.44.44 0 01-.13.33.45.45 0 01-.33.14.47.47 0 01-.33-.14.44.44 0 01-.13-.33v-3a2.1 2.1 0 00-2.08-2.13 2 2 0 00-1.47.62 2 2 0 00-.61 1.49V44a.45.45 0 01-.14.33.45.45 0 01-.32.14.48.48 0 01-.46-.47zm10.33-.22l2.56 5.66a.41.41 0 010 .19.45.45 0 01-.14.33.44.44 0 01-.33.13.44.44 0 01-.32-.13l-.09-.12-2.13-4.71-2.12 4.71a.62.62 0 01-.09.12.46.46 0 01-.79-.33.58.58 0 010-.19l2.57-5.66a.52.52 0 01.07-.11.44.44 0 01.33-.13.42.42 0 01.33.13.35.35 0 01.15.11zm7.91-.25a.44.44 0 01.33.13.48.48 0 01.13.34V44a.44.44 0 01-.13.33.45.45 0 01-.33.14.45.45 0 01-.32-.14.45.45 0 01-.14-.33v-2.31h-1.39a.89.89 0 00-.65.27 1.18 1.18 0 00-.17.24l-1.06 2a.49.49 0 01-.1.15.45.45 0 01-.33.14.45.45 0 01-.32-.14.45.45 0 01-.14-.33.4.4 0 01.08-.26l1.05-2a1.79 1.79 0 01.22-.34 2 2 0 01-.89-1.61 1.83 1.83 0 01.54-1.33 1.79 1.79 0 011.31-.54zm-.46 2.81v-1.88h-1.85a.94.94 0 00-.65 1.6.86.86 0 00.65.28zm7.86 3.25a.45.45 0 01-.14.33.45.45 0 01-.32.14.48.48 0 01-.47-.47v-.38a2.84 2.84 0 01-2.08.85 2.9 2.9 0 01-2.12-.89 3 3 0 01-.88-2.16v-3a.49.49 0 01.14-.34.44.44 0 01.32-.13.44.44 0 01.33.13.48.48 0 01.13.34v3a2.07 2.07 0 00.61 1.49 2 2 0 001.47.62 1.94 1.94 0 001.47-.62 2 2 0 00.61-1.49v-3a.49.49 0 01.14-.34.44.44 0 01.33-.13.44.44 0 01.32.13.49.49 0 01.14.34zm-4.82-8.2a.42.42 0 01.14-.33.4.4 0 01.32-.14.42.42 0 01.33.14.44.44 0 01.13.33c0 .13.09.24.28.33a1.42 1.42 0 00.65.14 1.45 1.45 0 00.65-.14c.19-.09.28-.2.28-.33a.44.44 0 01.13-.33.43.43 0 01.33-.14.42.42 0 01.33.14.44.44 0 01.13.33 1.25 1.25 0 01-.54 1 2.13 2.13 0 01-1.31.41 2.07 2.07 0 01-1.31-.41 1.23 1.23 0 01-.54-.97zm10.23 7.2a1.7 1.7 0 00.31.33 1.73 1.73 0 001 .27 1.61 1.61 0 001-.3.89.89 0 00.41-.69 1 1 0 00-.41-.78 1.46 1.46 0 00-1-.34.39.39 0 01-.32-.14.47.47 0 01.32-.8 2.12 2.12 0 001-.21.65.65 0 00.41-.55.72.72 0 00-.41-.63 1.9 1.9 0 00-1-.25 1.74 1.74 0 00-1 .28 1.46 1.46 0 00-.3.31l-.07.09a.46.46 0 01-.66 0 .44.44 0 01-.13-.33.43.43 0 01.07-.25 1.81 1.81 0 01.44-.49 2.52 2.52 0 011.63-.54 2.65 2.65 0 011.64.51 1.58 1.58 0 01.67 1.3 1.37 1.37 0 01-.78 1.23 2.07 2.07 0 01.78 1.59 1.73 1.73 0 01-.67 1.35 2.42 2.42 0 01-1.64.58 2.47 2.47 0 01-1.63-.55 2.06 2.06 0 01-.41-.43.47.47 0 01-.09-.28.48.48 0 01.46-.47.45.45 0 01.38.19zm10.07.51a3.09 3.09 0 01-2.29 1 3.12 3.12 0 01-2.29-1 3.33 3.33 0 010-4.64 3.12 3.12 0 012.29-1 3.09 3.09 0 012.29 1 3.19 3.19 0 011 2.32v3.31a2.46 2.46 0 01-.73 1.78 3.44 3.44 0 01-4.91 0 3.59 3.59 0 01-.61-.81.52.52 0 01-.07-.25.45.45 0 01.14-.33.45.45 0 01.32-.14.49.49 0 01.43.28 3.08 3.08 0 00.45.59 2.52 2.52 0 003.59 0 1.77 1.77 0 00.46-1.12zm-2.31-4.64a2.19 2.19 0 00-1.63.69 2.37 2.37 0 000 3.32 2.22 2.22 0 001.63.68 2.24 2.24 0 001.64-.68 2.39 2.39 0 000-3.32 2.21 2.21 0 00-1.64-.69zm10.63 2.35a3.19 3.19 0 01-.94 2.32 3.21 3.21 0 01-4.58 0 3.31 3.31 0 010-4.64 3.21 3.21 0 014.58 0 3.18 3.18 0 01.94 2.32zm-3.23-2.35a2.21 2.21 0 00-1.64.69 2.39 2.39 0 000 3.32 2.24 2.24 0 001.64.68 2.22 2.22 0 001.63-.68 2.37 2.37 0 000-3.32 2.19 2.19 0 00-1.63-.69zm5.08 7.97a.44.44 0 01-.13.33.42.42 0 01-.33.14.43.43 0 01-.33-.14.44.44 0 01-.13-.33v-5.62a3.15 3.15 0 01.95-2.32 3.2 3.2 0 014.57 0 3.31 3.31 0 010 4.64 3.2 3.2 0 01-4.57 0zm0-5.62a2.29 2.29 0 00.68 1.66 2.31 2.31 0 003.27 0 2.37 2.37 0 000-3.32 2.28 2.28 0 00-3.27 0 2.29 2.29 0 00-.68 1.66zm12.95 0a3.2 3.2 0 01-1 2.32 3.21 3.21 0 01-4.58 0 3.31 3.31 0 010-4.64 3.21 3.21 0 014.58 0 3.19 3.19 0 011 2.32zM227 38.87a2.23 2.23 0 00-1.64.69 2.31 2.31 0 103.28 0 2.23 2.23 0 00-1.64-.69zm4.62-.93h2.31a1.77 1.77 0 011.31.54 1.92 1.92 0 01.12 2.53 2.26 2.26 0 01.35.28 1.91 1.91 0 010 2.66 1.76 1.76 0 01-1.31.55h-2.78a.45.45 0 01-.32-.14.45.45 0 01-.14-.33v-5.62a.49.49 0 01.14-.34.44.44 0 01.32-.13zm2.31 2.81a.87.87 0 00.66-.28.94.94 0 000-1.32.91.91 0 00-.66-.28h-1.84v1.88zm.47 2.81a.89.89 0 00.65-.27 1 1 0 000-1.33.89.89 0 00-.65-.27h-2.31v1.87zm3.69-5.15v2.34h2.08a1.74 1.74 0 011.31.55 1.8 1.8 0 01.54 1.32 1.82 1.82 0 01-.54 1.33 1.74 1.74 0 01-1.31.55h-2.54a.45.45 0 01-.32-.14.45.45 0 01-.14-.33v-5.64a.45.45 0 01.14-.32.44.44 0 01.32-.13.44.44 0 01.33.13.48.48 0 01.13.34zm2.08 5.15a.9.9 0 00.66-.27 1 1 0 000-1.33.9.9 0 00-.66-.27h-2.08v1.87zm7.83-.65a.44.44 0 01.33.13.45.45 0 01.14.33.49.49 0 01-.14.34 3.2 3.2 0 01-4.39-.17 3.31 3.31 0 010-4.64 3.2 3.2 0 014.57 0 3.19 3.19 0 01.95 2.32.45.45 0 01-.14.33.45.45 0 01-.32.14h-5.05a2.32 2.32 0 00.64 1.19 2.22 2.22 0 001.63.68 2.11 2.11 0 001.49-.56.52.52 0 01.29-.09zm.49-2.16a2.3 2.3 0 00-3.9-1.19 2.29 2.29 0 00-.64 1.19zm-224.8-11.9l-.1.19a12 12 0 01-2.33 3.64c-.27.31-.48.67-.73 1a12.05 12.05 0 01-.79 1 .7.7 0 01-.74.15 9.11 9.11 0 01-1.24-.54c-1.39-.78-2.78-1.57-4.15-2.4A15.53 15.53 0 0010 30.12c-.21-.07-.44-.11-.66-.16a.17.17 0 00-.24.12.37.37 0 01-.42.24 1.58 1.58 0 01-.38-.05 4.87 4.87 0 00-1.9-.15 1.35 1.35 0 01-.45 0 3.45 3.45 0 00-1.63 0 2.74 2.74 0 01-.7 0 .21.21 0 01-.2-.32 1.28 1.28 0 01.3-.43 4.06 4.06 0 011.72-.83c.4-.09.8-.19 1.21-.26a1.8 1.8 0 001.19-.75 2 2 0 01.91-.69.66.66 0 01.9.23 7 7 0 01.47.85.58.58 0 00.35.32c1.1.44 2.21.88 3.3 1.35a5.4 5.4 0 001.67.38 4.27 4.27 0 012 .74c.14.09.29.16.43.26s.28.06.39-.09a2.31 2.31 0 00.42-1.18 18.36 18.36 0 01.69-3.59.36.36 0 000-.27 3.49 3.49 0 01-.33-3.46 6.24 6.24 0 01.44-.9.25.25 0 000-.32c-.26-.32-.24-.31 0-.65a5.5 5.5 0 001-3.14 12.32 12.32 0 01.33-2.76c.1-.5.15-1 .22-1.56-.54.12-1 .25-1.47.32-.69.11-1.38.18-2.06.27-.12 0-.21 0-.25.17-.28.94-.54 1.9-.87 2.82a7.22 7.22 0 00-.24 3.13.8.8 0 00.28.47.76.76 0 01.26 1.05c-.06.2-.08.42-.15.61s-.13.32-.36.23a.15.15 0 00-.12 0 .3.3 0 01-.36 0h-.19c-.07 0-.21 0-.31-.06s-.09-.06-.14-.07c-.31-.05-.44-.16-.42-.5a6.66 6.66 0 01.19-1.34 4.48 4.48 0 00.11-1.63 12.83 12.83 0 01.37-4.82c.07-.24.15-.47.24-.71a1.26 1.26 0 01.57-.71c1-.53 2-1 3-1.55.3-.15.65-.2 1-.32a1.52 1.52 0 00.53-.29 3.57 3.57 0 012.47-1 .61.61 0 00.32-.13 3.51 3.51 0 011.09-.68.81.81 0 00.48-.8 3.09 3.09 0 00-.23-1.28 2 2 0 01-.13-1.32 3.12 3.12 0 01.69-1.51 2.37 2.37 0 012.26-.68 9.18 9.18 0 011.23.3.51.51 0 01.44.52.37.37 0 00.1.21 1.92 1.92 0 01.45 1.36 2.37 2.37 0 00.17.77c.05.18.14.34.21.52s.1.31-.16.44-.15.25-.12.41a.91.91 0 01-.12.64.93.93 0 00-.12.39c0 .41-.06.54-.47.58s-.72 0-1.08 0c-.13 0-.25 0-.3.15s0 .24.14.31a3.53 3.53 0 00.64.33 2.06 2.06 0 011.4 2.74 4.47 4.47 0 00-.21 1.78 8.92 8.92 0 01-.17 1.77c0 .18 0 .24.19.28a5 5 0 001.71.29c.41-.05.81-.15 1.21-.23A.27.27 0 0033 16a1.1 1.1 0 01.07-.36.6.6 0 01.55-.42 4.86 4.86 0 00.66-.15l.4-.06a.65.65 0 01.2 0 2.62 2.62 0 01.45.67 2.36 2.36 0 01.11.79c0 .34 0 .57-.34.66s-.75.17-1.12.26c-.8.2-1.6.35-2.38.6a14.78 14.78 0 01-2.62.58 1.48 1.48 0 01-1.39-.8l-.27-.51a3.38 3.38 0 00-.19.39c-.27.85-.53 1.71-.81 2.56-.16.48-.34 1-.52 1.44a1.05 1.05 0 00-.06.24 2.8 2.8 0 01-.28 1.27c-.05.12-.07.22.05.32a21 21 0 013.45 3.6c.52.64 1 1.35 1.46 2A6.4 6.4 0 0031 30a1.52 1.52 0 01.53 1.17 11 11 0 00.25 2.83 46.77 46.77 0 001.67 5.56 8.18 8.18 0 00.39 1 3.66 3.66 0 00.54.65.16.16 0 00.27 0h.22a.88.88 0 01.25.22 3 3 0 002.91.9 3.83 3.83 0 011.07-.05.46.46 0 01.4.66 2 2 0 01-.52.69 4.91 4.91 0 01-2.59 1.14 2.89 2.89 0 01-.72 0 4.22 4.22 0 00-1.5.11 6.47 6.47 0 01-.87.11.87.87 0 01-1-.93 5.21 5.21 0 010-1 3.13 3.13 0 00-.38-1.68c-.39-1.06-.79-2.11-1.24-3.14a13 13 0 00-.78-1.34c-.29-.49-.6-1-.85-1.47a4.19 4.19 0 01-.34-1.76c0-.5-.06-1-.09-1.49a1 1 0 00-.55-.85 13.61 13.61 0 00-1.46-.66A8.2 8.2 0 0123.94 29a1.8 1.8 0 00-.25-.15z" transform="translate(-3.42 -2.55)" fill="#fff"/></svg>