<svg id="Слой_1" data-name="Слой 1" xmlns="http://www.w3.org/2000/svg" viewBox="0 0 246 44.76"><defs><style>.cls-1{fill:#fff;}</style></defs><path class="cls-1" d="M72.44,24.1a1.41,1.41,0,0,1-.35,1,1.24,1.24,0,0,1-1,.39,1.32,1.32,0,0,1-1.19-.72l-4.53-8H61.57V24A1.59,1.59,0,0,1,61.19,25a1.34,1.34,0,0,1-2,0A1.55,1.55,0,0,1,58.83,24V4.32a1.52,1.52,0,0,1,.39-1.08,1.3,1.3,0,0,1,1-.42h4.74a6.89,6.89,0,0,1,3.49.89,6.27,6.27,0,0,1,2.39,2.53A7.84,7.84,0,0,1,71.68,10a7,7,0,0,1-1,3.65A6.06,6.06,0,0,1,68.15,16l4,7.13A1.88,1.88,0,0,1,72.44,24.1ZM64.94,14a4.11,4.11,0,0,0,3-1.11A3.86,3.86,0,0,0,69.05,10a4.36,4.36,0,0,0-1.16-3.13,3.92,3.92,0,0,0-3-1.22H61.57V14Z" transform="translate(-3.42 -2.55)"/><path class="cls-1" d="M88.06,10a1.56,1.56,0,0,1,.37,1.07V24A1.56,1.56,0,0,1,88.06,25a1.24,1.24,0,0,1-1,.42,1.26,1.26,0,0,1-1-.42A1.52,1.52,0,0,1,85.74,24v-.32a5.82,5.82,0,0,1-2,1.43,6.08,6.08,0,0,1-2.48.51A6.19,6.19,0,0,1,78,24.74a5.93,5.93,0,0,1-2.27-2.54,9.1,9.1,0,0,1-.81-4V11.05A1.55,1.55,0,0,1,75.3,10a1.31,1.31,0,0,1,1.92,0,1.5,1.5,0,0,1,.38,1.06v7.14a5,5,0,0,0,1.15,3.55,4,4,0,0,0,3,1.2,4.16,4.16,0,0,0,2-.49,3.67,3.67,0,0,0,1.42-1.34,3.53,3.53,0,0,0,.51-1.88V11.05A1.52,1.52,0,0,1,86.12,10a1.28,1.28,0,0,1,1-.41A1.27,1.27,0,0,1,88.06,10Z" transform="translate(-3.42 -2.55)"/><path class="cls-1" d="M103.59,10.33a5.9,5.9,0,0,1,2.27,2.53,9.15,9.15,0,0,1,.82,4V24a1.49,1.49,0,0,1-.39,1.06,1.23,1.23,0,0,1-1,.42,1.26,1.26,0,0,1-1-.42A1.53,1.53,0,0,1,104,24V16.88a4.92,4.92,0,0,0-1.15-3.55,4,4,0,0,0-3-1.21,4.13,4.13,0,0,0-2,.5A3.65,3.65,0,0,0,96.37,14a3.49,3.49,0,0,0-.52,1.89V24a1.52,1.52,0,0,1-.37,1.06,1.32,1.32,0,0,1-1.93,0A1.48,1.48,0,0,1,93.17,24V11.08A1.48,1.48,0,0,1,93.55,10a1.34,1.34,0,0,1,1.93,0,1.52,1.52,0,0,1,.37,1.07v.32a5.85,5.85,0,0,1,2-1.44,6.28,6.28,0,0,1,2.48-.5A6.19,6.19,0,0,1,103.59,10.33Z" transform="translate(-3.42 -2.55)"/><path class="cls-1" d="M113.27,24.48a6.63,6.63,0,0,1-2.88-3.34,1.62,1.62,0,0,1-.13-.58,1.08,1.08,0,0,1,.29-.76,1.33,1.33,0,0,1,.79-.45.79.79,0,0,1,.26,0,1.35,1.35,0,0,1,.8.27,1.61,1.61,0,0,1,.57.74,4.1,4.1,0,0,0,1.87,1.92,6.21,6.21,0,0,0,3.08.78,5.47,5.47,0,0,0,3.34-1,3.2,3.2,0,0,0,1.37-2.74,3.86,3.86,0,0,0-1.16-2.83A5.7,5.7,0,0,0,118,15a8.6,8.6,0,0,1-5.14-2.1,5.75,5.75,0,0,1-1.87-4.39,5.39,5.39,0,0,1,1-3.21,6.15,6.15,0,0,1,2.64-2.06,9.53,9.53,0,0,1,3.75-.71,6.82,6.82,0,0,1,3.82,1,8.35,8.35,0,0,1,2.63,2.9,2.14,2.14,0,0,1,.32,1,1.27,1.27,0,0,1-.53,1.05,1.19,1.19,0,0,1-.69.2,1.3,1.3,0,0,1-.73-.22,1.38,1.38,0,0,1-.53-.59,5.33,5.33,0,0,0-1.78-2,5,5,0,0,0-2.7-.68,5.56,5.56,0,0,0-3.23.86,2.81,2.81,0,0,0-1.24,2.48,3.31,3.31,0,0,0,1.1,2.52,7.08,7.08,0,0,0,4,1.33,7.9,7.9,0,0,1,4.9,2.1,6.3,6.3,0,0,1,1.74,4.63,6.12,6.12,0,0,1-1,3.58A6.19,6.19,0,0,1,121.57,25a9,9,0,0,1-3.65.74A8.78,8.78,0,0,1,113.27,24.48Z" transform="translate(-3.42 -2.55)"/><path class="cls-1" d="M148.08,11.11a6.89,6.89,0,0,1,1.41,4.61V24a1.52,1.52,0,0,1-.37,1.06,1.32,1.32,0,0,1-1.93,0,1.48,1.48,0,0,1-.38-1.06V15.72A3.92,3.92,0,0,0,146,13a2.7,2.7,0,0,0-2.14-.92,2.79,2.79,0,0,0-2.25,1.05,4,4,0,0,0-.89,2.67V24a1.52,1.52,0,0,1-.37,1.06,1.32,1.32,0,0,1-1.93,0A1.48,1.48,0,0,1,138,24V15.72a3.92,3.92,0,0,0-.81-2.68,2.7,2.7,0,0,0-2.14-.92,2.85,2.85,0,0,0-2.28,1.05,4,4,0,0,0-.88,2.67V24a1.52,1.52,0,0,1-.37,1.06,1.24,1.24,0,0,1-1,.42,1.26,1.26,0,0,1-1-.42,1.53,1.53,0,0,1-.38-1.06V11.11a1.52,1.52,0,0,1,.38-1.07,1.29,1.29,0,0,1,1-.41,1.23,1.23,0,0,1,.94.39,1.54,1.54,0,0,1,.4,1,4.78,4.78,0,0,1,1.63-1.17,5,5,0,0,1,2.06-.42,4.9,4.9,0,0,1,2.4.59,4.77,4.77,0,0,1,1.76,1.7,5.42,5.42,0,0,1,2-1.68,5.63,5.63,0,0,1,2.63-.61A4.63,4.63,0,0,1,148.08,11.11Z" transform="translate(-3.42 -2.55)"/><path class="cls-1" d="M164.15,10.54a7.61,7.61,0,0,1,2.6,2.9,8.77,8.77,0,0,1,1,4.11V24a1.49,1.49,0,0,1-.39,1.06,1.23,1.23,0,0,1-1,.42,1.26,1.26,0,0,1-1-.42A1.53,1.53,0,0,1,165,24V22.94a6.59,6.59,0,0,1-2.24,1.94,5.94,5.94,0,0,1-2.84.7,6,6,0,0,1-3.44-1,7.11,7.11,0,0,1-2.42-2.89,9.33,9.33,0,0,1-.88-4.1,8.88,8.88,0,0,1,.94-4.11,7.5,7.5,0,0,1,2.62-2.9,6.84,6.84,0,0,1,3.7-1A6.72,6.72,0,0,1,164.15,10.54Zm-1.29,11.72a4.88,4.88,0,0,0,1.67-1.94,6.26,6.26,0,0,0,.6-2.77,6.34,6.34,0,0,0-.6-2.79,4.84,4.84,0,0,0-1.67-1.95,4.36,4.36,0,0,0-4.77,0,5,5,0,0,0-1.69,1.95,6.21,6.21,0,0,0-.61,2.79,6.13,6.13,0,0,0,.61,2.77,5,5,0,0,0,1.69,1.94,4.36,4.36,0,0,0,4.77,0Z" transform="translate(-3.42 -2.55)"/><path class="cls-1" d="M181,9.89a1.35,1.35,0,0,1,.79,1.16,1,1,0,0,1,0,.29,1,1,0,0,1-1.05.93,1.85,1.85,0,0,1-.39-.06,10.07,10.07,0,0,0-1.72-.2,4.62,4.62,0,0,0-3.05,1,3.16,3.16,0,0,0-1.16,2.58V24a1.59,1.59,0,0,1-.33,1.08,1.25,1.25,0,0,1-1,.37,1.28,1.28,0,0,1-1-.36,1.52,1.52,0,0,1-.34-1.09v-13a1.53,1.53,0,0,1,.34-1.07,1.25,1.25,0,0,1,1-.38c.88,0,1.32.49,1.32,1.45v.55a5.68,5.68,0,0,1,2-1.59,5.41,5.41,0,0,1,2.47-.58A4.35,4.35,0,0,1,181,9.89Z" transform="translate(-3.42 -2.55)"/><path class="cls-1" d="M191.45,23a1.6,1.6,0,0,1,.33,1,1.37,1.37,0,0,1-.43,1,1.57,1.57,0,0,1-1.12.4h-.47a4,4,0,0,1-2.36-.73,5,5,0,0,1-1.67-2,6.53,6.53,0,0,1-.61-2.87V12.68h-1.21a1.18,1.18,0,0,1-1.24-1.22,1.29,1.29,0,0,1,.34-.93,1.22,1.22,0,0,1,.9-.35h1.21V6a1.48,1.48,0,0,1,.37-1,1.21,1.21,0,0,1,.95-.4,1.24,1.24,0,0,1,.95.4,1.52,1.52,0,0,1,.36,1v4.17H190a1.22,1.22,0,0,1,.9.35,1.25,1.25,0,0,1,.34.93,1.18,1.18,0,0,1-.34.87,1.22,1.22,0,0,1-.9.35h-2.24v7.16a3.21,3.21,0,0,0,.58,1.94,1.73,1.73,0,0,0,1.43.78h.89A1,1,0,0,1,191.45,23Z" transform="translate(-3.42 -2.55)"/><path class="cls-1" d="M58.11,38.92l0,0a3.2,3.2,0,0,1,4.57,0,3.31,3.31,0,0,1,0,4.64,3.2,3.2,0,0,1-4.57,0,3.2,3.2,0,0,1-1-2.32V38.87a3.2,3.2,0,0,1,1-2.32,3.09,3.09,0,0,1,2.29-1h.26a4,4,0,0,0,1.84-.42.46.46,0,0,1,.21-.05.45.45,0,0,1,.32.14.45.45,0,0,1,.14.33.49.49,0,0,1-.13.33.38.38,0,0,1-.13.09,4.78,4.78,0,0,1-2.25.52h-.26a2.21,2.21,0,0,0-1.64.69,2.27,2.27,0,0,0-.68,1.65Zm4.63,2.3a2.29,2.29,0,0,0-.68-1.66,2.28,2.28,0,0,0-3.27,0,2.37,2.37,0,0,0,0,3.32,2.31,2.31,0,0,0,3.27,0A2.29,2.29,0,0,0,62.74,41.22Z" transform="translate(-3.42 -2.55)"/><path class="cls-1" d="M69.6,42.91a.44.44,0,0,1,.46.46.48.48,0,0,1-.13.34,3.21,3.21,0,0,1-4.4-.17,3.33,3.33,0,0,1,0-4.64,3.21,3.21,0,0,1,4.58,0,3.19,3.19,0,0,1,1,2.32.48.48,0,0,1-.47.47h-5a2.32,2.32,0,0,0,.64,1.19,2.22,2.22,0,0,0,1.63.68A2.11,2.11,0,0,0,69.31,43,.5.5,0,0,1,69.6,42.91Zm.49-2.16a2.3,2.3,0,0,0-3.9-1.19,2.29,2.29,0,0,0-.64,1.19Z" transform="translate(-3.42 -2.55)"/><path class="cls-1" d="M72.91,44a.48.48,0,0,1-.47.47.45.45,0,0,1-.32-.14A.45.45,0,0,1,72,44V39.81a1.83,1.83,0,0,1,.54-1.33,1.79,1.79,0,0,1,1.31-.54h1.85a.44.44,0,0,1,.33.13.48.48,0,0,1,.13.34.48.48,0,0,1-.13.33.44.44,0,0,1-.33.13H73.83a.94.94,0,0,0-.92.94Z" transform="translate(-3.42 -2.55)"/><path class="cls-1" d="M82.36,43.51a3.13,3.13,0,0,1-2.31,1,3.09,3.09,0,0,1-2.29-1,3.31,3.31,0,0,1,0-4.64,3.09,3.09,0,0,1,2.29-1,3.12,3.12,0,0,1,2.29,1,3.18,3.18,0,0,1,.94,2.32V44a.44.44,0,0,1-.13.33.46.46,0,0,1-.66,0,.44.44,0,0,1-.13-.33Zm-2.31-4.64a2.21,2.21,0,0,0-1.64.69,2.39,2.39,0,0,0,0,3.32,2.24,2.24,0,0,0,1.64.68,2.22,2.22,0,0,0,1.63-.68,2.37,2.37,0,0,0,0-3.32A2.19,2.19,0,0,0,80.05,38.87Z" transform="translate(-3.42 -2.55)"/><path class="cls-1" d="M90.22,44a.48.48,0,0,1-.47.47.45.45,0,0,1-.32-.14.45.45,0,0,1-.14-.33v-.38a2.85,2.85,0,0,1-2.08.85,2.89,2.89,0,0,1-2.12-.89,3,3,0,0,1-.88-2.16v-3a.48.48,0,0,1,.13-.34.48.48,0,0,1,.66,0,.48.48,0,0,1,.13.34v3a2.07,2.07,0,0,0,.61,1.49,2,2,0,0,0,1.47.62,1.94,1.94,0,0,0,1.47-.62,2,2,0,0,0,.61-1.49v-3a.49.49,0,0,1,.14-.34.44.44,0,0,1,.32-.13.44.44,0,0,1,.33.13.49.49,0,0,1,.14.34Zm-4.82-8.2a.44.44,0,0,1,.13-.33.46.46,0,0,1,.66,0,.44.44,0,0,1,.13.33q0,.2.27.33a1.49,1.49,0,0,0,.66.14,1.45,1.45,0,0,0,.65-.14c.19-.09.28-.2.28-.33a.44.44,0,0,1,.13-.33.46.46,0,0,1,.66,0,.44.44,0,0,1,.13.33,1.25,1.25,0,0,1-.54,1,2.13,2.13,0,0,1-1.31.41,2.05,2.05,0,0,1-1.31-.41A1.23,1.23,0,0,1,85.4,35.83Z" transform="translate(-3.42 -2.55)"/><path class="cls-1" d="M98,38.19l2.56,5.66a.41.41,0,0,1,0,.19.45.45,0,0,1-.14.33.44.44,0,0,1-.32.13.44.44,0,0,1-.33-.13.62.62,0,0,1-.09-.12l-2.13-4.71-2.12,4.71a.62.62,0,0,1-.09.12.46.46,0,0,1-.79-.33.58.58,0,0,1,0-.19l2.57-5.66a.52.52,0,0,1,.07-.11.44.44,0,0,1,.33-.13.42.42,0,0,1,.33.13A.35.35,0,0,1,98,38.19Z" transform="translate(-3.42 -2.55)"/><path class="cls-1" d="M106.56,42.91a.44.44,0,0,1,.32.13.45.45,0,0,1,.14.33.48.48,0,0,1-.13.34,3.21,3.21,0,0,1-4.4-.17,3.31,3.31,0,0,1,0-4.64,3.09,3.09,0,0,1,2.29-1,3.12,3.12,0,0,1,2.29,1,3.18,3.18,0,0,1,.94,2.32.44.44,0,0,1-.13.33.45.45,0,0,1-.33.14h-5a2.31,2.31,0,0,0,2.27,1.87,2.13,2.13,0,0,0,1.49-.56A.48.48,0,0,1,106.56,42.91Zm.49-2.16a2.29,2.29,0,0,0-.64-1.19,2.31,2.31,0,0,0-3.9,1.19Z" transform="translate(-3.42 -2.55)"/><path class="cls-1" d="M109.86,44a.44.44,0,0,1-.13.33.46.46,0,0,1-.66,0,.44.44,0,0,1-.13-.33V39.81a1.83,1.83,0,0,1,.54-1.33,1.77,1.77,0,0,1,1.31-.54h1.85a.44.44,0,0,1,.32.13.49.49,0,0,1,.14.34.49.49,0,0,1-.14.33.44.44,0,0,1-.32.13h-1.85a.91.91,0,0,0-.66.28.9.9,0,0,0-.27.66Z" transform="translate(-3.42 -2.55)"/><path class="cls-1" d="M114,38.41a.49.49,0,0,1,.14-.34.44.44,0,0,1,.32-.13.44.44,0,0,1,.33.13.49.49,0,0,1,.14.34V41l3.39-2.92a.46.46,0,0,1,.3-.11.44.44,0,0,1,.33.13.49.49,0,0,1,.14.34.45.45,0,0,1-.14.32L116.1,41.2,119,43.7a.47.47,0,0,1-.33.8.48.48,0,0,1-.3-.11l-3-2.57-.44.38V44a.48.48,0,0,1-.47.47.45.45,0,0,1-.32-.14A.45.45,0,0,1,114,44Z" transform="translate(-3.42 -2.55)"/><path class="cls-1" d="M126.23,41.22a3.16,3.16,0,0,1-1,2.32,3.2,3.2,0,0,1-4.57,0,3.31,3.31,0,0,1,0-4.64,3.2,3.2,0,0,1,4.57,0A3.15,3.15,0,0,1,126.23,41.22ZM123,38.87a2.21,2.21,0,0,0-1.64.69,2.37,2.37,0,0,0,0,3.32,2.24,2.24,0,0,0,1.64.68,2.22,2.22,0,0,0,1.63-.68,2.37,2.37,0,0,0,0-3.32A2.19,2.19,0,0,0,123,38.87Z" transform="translate(-3.42 -2.55)"/><path class="cls-1" d="M131.08,41.69a.45.45,0,0,1-.32-.14.46.46,0,0,1,0-.66.41.41,0,0,1,.32-.14h2.78a.4.4,0,0,1,.32.14.46.46,0,0,1,0,.66.43.43,0,0,1-.32.14Z" transform="translate(-3.42 -2.55)"/><path class="cls-1" d="M141,44l-2.22-5.4a.5.5,0,0,1,0-.21.49.49,0,0,1,.14-.34.44.44,0,0,1,.32-.13.44.44,0,0,1,.33.13.49.49,0,0,1,.11.18l1.88,4.55,1.87-4.55a.49.49,0,0,1,.11-.18.44.44,0,0,1,.33-.13.44.44,0,0,1,.32.13.49.49,0,0,1,.14.34.5.5,0,0,1,0,.21L140.76,47a.48.48,0,0,1-.44.31.41.41,0,0,1-.32-.14.45.45,0,0,1-.14-.33.46.46,0,0,1,0-.21Z" transform="translate(-3.42 -2.55)"/><path class="cls-1" d="M145.18,38.41a.49.49,0,0,1,.14-.34.44.44,0,0,1,.33-.13.44.44,0,0,1,.32.13.49.49,0,0,1,.14.34V41l3.39-2.92a.47.47,0,0,1,.31-.11.44.44,0,0,1,.32.13.49.49,0,0,1,.14.34.48.48,0,0,1-.13.32l-2.88,2.47,2.88,2.5a.49.49,0,0,1,.13.33.45.45,0,0,1-.14.33.45.45,0,0,1-.32.14.44.44,0,0,1-.3-.11l-3-2.57-.44.38V44a.45.45,0,0,1-.14.33.45.45,0,0,1-.32.14.48.48,0,0,1-.47-.47Z" transform="translate(-3.42 -2.55)"/><path class="cls-1" d="M152.12,46.84a.45.45,0,0,1-.14.33.42.42,0,0,1-.33.14.41.41,0,0,1-.32-.14.45.45,0,0,1-.14-.33V41.22a3.19,3.19,0,0,1,.95-2.32,3.21,3.21,0,0,1,4.58,0,3.33,3.33,0,0,1,0,4.64,3.21,3.21,0,0,1-4.58,0l0,0Zm0-5.62a2.28,2.28,0,0,0,.67,1.66,2.24,2.24,0,0,0,1.64.68,2.22,2.22,0,0,0,1.63-.68,2.37,2.37,0,0,0,0-3.32,2.28,2.28,0,0,0-3.27,0A2.28,2.28,0,0,0,152.12,41.22Z" transform="translate(-3.42 -2.55)"/><path class="cls-1" d="M163.6,42.91a.44.44,0,0,1,.33.13.45.45,0,0,1,.14.33.49.49,0,0,1-.14.34,3.2,3.2,0,0,1-4.39-.17,3.31,3.31,0,0,1,0-4.64,3.2,3.2,0,0,1,4.57,0,3.19,3.19,0,0,1,.95,2.32.42.42,0,0,1-.14.33.43.43,0,0,1-.32.14h-5a2.32,2.32,0,0,0,.64,1.19,2.22,2.22,0,0,0,1.63.68,2.11,2.11,0,0,0,1.49-.56A.52.52,0,0,1,163.6,42.91Zm.5-2.16a2.29,2.29,0,0,0-.64-1.19,2.28,2.28,0,0,0-3.27,0,2.29,2.29,0,0,0-.64,1.19Z" transform="translate(-3.42 -2.55)"/><path class="cls-1" d="M166,38.41a.49.49,0,0,1,.14-.34.44.44,0,0,1,.33-.13.44.44,0,0,1,.32.13.49.49,0,0,1,.14.34v.38a3,3,0,0,1,4.2,0A2.94,2.94,0,0,1,172,41V44a.44.44,0,0,1-.13.33.45.45,0,0,1-.33.14.47.47,0,0,1-.33-.14.44.44,0,0,1-.13-.33V41A2.1,2.1,0,0,0,169,38.87a2,2,0,0,0-1.47.62,2,2,0,0,0-.61,1.49V44a.45.45,0,0,1-.14.33.45.45,0,0,1-.32.14A.48.48,0,0,1,166,44Z" transform="translate(-3.42 -2.55)"/><path class="cls-1" d="M176.33,38.19l2.56,5.66a.41.41,0,0,1,0,.19.45.45,0,0,1-.14.33.44.44,0,0,1-.33.13.44.44,0,0,1-.32-.13l-.09-.12-2.13-4.71-2.12,4.71a.62.62,0,0,1-.09.12.46.46,0,0,1-.79-.33.58.58,0,0,1,0-.19l2.57-5.66a.52.52,0,0,1,.07-.11.44.44,0,0,1,.33-.13.42.42,0,0,1,.33.13A.35.35,0,0,1,176.33,38.19Z" transform="translate(-3.42 -2.55)"/><path class="cls-1" d="M184.24,37.94a.44.44,0,0,1,.33.13.48.48,0,0,1,.13.34V44a.44.44,0,0,1-.13.33.45.45,0,0,1-.33.14.45.45,0,0,1-.32-.14.45.45,0,0,1-.14-.33V41.69h-1.39a.89.89,0,0,0-.65.27,1.18,1.18,0,0,0-.17.24l-1.06,2a.49.49,0,0,1-.1.15.45.45,0,0,1-.33.14.45.45,0,0,1-.32-.14.45.45,0,0,1-.14-.33.4.4,0,0,1,.08-.26l1.05-2a1.79,1.79,0,0,1,.22-.34,2,2,0,0,1-.89-1.61,1.83,1.83,0,0,1,.54-1.33,1.79,1.79,0,0,1,1.31-.54Zm-.46,2.81V38.87h-1.85a.94.94,0,0,0-.65,1.6.86.86,0,0,0,.65.28Z" transform="translate(-3.42 -2.55)"/><path class="cls-1" d="M191.64,44a.45.45,0,0,1-.14.33.45.45,0,0,1-.32.14.48.48,0,0,1-.47-.47v-.38a2.84,2.84,0,0,1-2.08.85,2.9,2.9,0,0,1-2.12-.89,3,3,0,0,1-.88-2.16v-3a.49.49,0,0,1,.14-.34.44.44,0,0,1,.32-.13.44.44,0,0,1,.33.13.48.48,0,0,1,.13.34v3a2.07,2.07,0,0,0,.61,1.49,2,2,0,0,0,1.47.62,1.94,1.94,0,0,0,1.47-.62,2,2,0,0,0,.61-1.49v-3a.49.49,0,0,1,.14-.34.44.44,0,0,1,.33-.13.44.44,0,0,1,.32.13.49.49,0,0,1,.14.34Zm-4.82-8.2a.42.42,0,0,1,.14-.33.4.4,0,0,1,.32-.14.42.42,0,0,1,.33.14.44.44,0,0,1,.13.33c0,.13.09.24.28.33a1.42,1.42,0,0,0,.65.14,1.45,1.45,0,0,0,.65-.14c.19-.09.28-.2.28-.33a.44.44,0,0,1,.13-.33.43.43,0,0,1,.33-.14.42.42,0,0,1,.33.14.44.44,0,0,1,.13.33,1.25,1.25,0,0,1-.54,1,2.13,2.13,0,0,1-1.31.41,2.07,2.07,0,0,1-1.31-.41A1.23,1.23,0,0,1,186.82,35.83Z" transform="translate(-3.42 -2.55)"/><path class="cls-1" d="M197.05,43a1.7,1.7,0,0,0,.31.33,1.73,1.73,0,0,0,1,.27,1.61,1.61,0,0,0,1-.3.89.89,0,0,0,.41-.69,1,1,0,0,0-.41-.78,1.46,1.46,0,0,0-1-.34.39.39,0,0,1-.32-.14.47.47,0,0,1,.32-.8,2.12,2.12,0,0,0,1-.21.65.65,0,0,0,.41-.55.72.72,0,0,0-.41-.63,1.9,1.9,0,0,0-1-.25,1.74,1.74,0,0,0-1,.28,1.46,1.46,0,0,0-.3.31l-.07.09a.46.46,0,0,1-.66,0,.44.44,0,0,1-.13-.33.43.43,0,0,1,.07-.25,1.81,1.81,0,0,1,.44-.49,2.52,2.52,0,0,1,1.63-.54,2.65,2.65,0,0,1,1.64.51,1.58,1.58,0,0,1,.67,1.3,1.37,1.37,0,0,1-.78,1.23,2.07,2.07,0,0,1,.78,1.59,1.73,1.73,0,0,1-.67,1.35,2.42,2.42,0,0,1-1.64.58,2.47,2.47,0,0,1-1.63-.55,2.06,2.06,0,0,1-.41-.43.47.47,0,0,1-.09-.28.48.48,0,0,1,.46-.47A.45.45,0,0,1,197.05,43Z" transform="translate(-3.42 -2.55)"/><path class="cls-1" d="M207.12,43.51l0,0a3.09,3.09,0,0,1-2.29,1,3.12,3.12,0,0,1-2.29-1,3.33,3.33,0,0,1,0-4.64,3.12,3.12,0,0,1,2.29-1,3.09,3.09,0,0,1,2.29,1,3.19,3.19,0,0,1,1,2.32V44.5a2.46,2.46,0,0,1-.73,1.78,3.44,3.44,0,0,1-4.91,0,3.59,3.59,0,0,1-.61-.81.52.52,0,0,1-.07-.25.45.45,0,0,1,.14-.33.45.45,0,0,1,.32-.14.49.49,0,0,1,.43.28,3.08,3.08,0,0,0,.45.59,2.52,2.52,0,0,0,3.59,0,1.77,1.77,0,0,0,.46-1.12Zm-2.31-4.64a2.19,2.19,0,0,0-1.63.69,2.37,2.37,0,0,0,0,3.32,2.22,2.22,0,0,0,1.63.68,2.24,2.24,0,0,0,1.64-.68,2.39,2.39,0,0,0,0-3.32A2.21,2.21,0,0,0,204.81,38.87Z" transform="translate(-3.42 -2.55)"/><path class="cls-1" d="M215.44,41.22a3.19,3.19,0,0,1-.94,2.32,3.21,3.21,0,0,1-4.58,0,3.31,3.31,0,0,1,0-4.64,3.21,3.21,0,0,1,4.58,0A3.18,3.18,0,0,1,215.44,41.22Zm-3.23-2.35a2.21,2.21,0,0,0-1.64.69,2.39,2.39,0,0,0,0,3.32,2.24,2.24,0,0,0,1.64.68,2.22,2.22,0,0,0,1.63-.68,2.37,2.37,0,0,0,0-3.32A2.19,2.19,0,0,0,212.21,38.87Z" transform="translate(-3.42 -2.55)"/><path class="cls-1" d="M217.29,46.84a.44.44,0,0,1-.13.33.42.42,0,0,1-.33.14.43.43,0,0,1-.33-.14.44.44,0,0,1-.13-.33V41.22a3.15,3.15,0,0,1,.95-2.32,3.2,3.2,0,0,1,4.57,0,3.31,3.31,0,0,1,0,4.64,3.2,3.2,0,0,1-4.57,0l0,0Zm0-5.62a2.29,2.29,0,0,0,.68,1.66,2.31,2.31,0,0,0,3.27,0,2.37,2.37,0,0,0,0-3.32,2.28,2.28,0,0,0-3.27,0A2.29,2.29,0,0,0,217.29,41.22Z" transform="translate(-3.42 -2.55)"/><path class="cls-1" d="M230.24,41.22a3.2,3.2,0,0,1-1,2.32,3.21,3.21,0,0,1-4.58,0,3.31,3.31,0,0,1,0-4.64,3.21,3.21,0,0,1,4.58,0A3.19,3.19,0,0,1,230.24,41.22ZM227,38.87a2.23,2.23,0,0,0-1.64.69,2.31,2.31,0,1,0,3.28,0A2.23,2.23,0,0,0,227,38.87Z" transform="translate(-3.42 -2.55)"/><path class="cls-1" d="M231.62,37.94h2.31a1.77,1.77,0,0,1,1.31.54,1.92,1.92,0,0,1,.12,2.53,2.26,2.26,0,0,1,.35.28,1.91,1.91,0,0,1,0,2.66,1.76,1.76,0,0,1-1.31.55h-2.78a.45.45,0,0,1-.32-.14.45.45,0,0,1-.14-.33V38.41a.49.49,0,0,1,.14-.34A.44.44,0,0,1,231.62,37.94Zm2.31,2.81a.87.87,0,0,0,.66-.28.94.94,0,0,0,0-1.32.91.91,0,0,0-.66-.28h-1.84v1.88Zm.47,2.81a.89.89,0,0,0,.65-.27,1,1,0,0,0,0-1.33.89.89,0,0,0-.65-.27h-2.31v1.87Z" transform="translate(-3.42 -2.55)"/><path class="cls-1" d="M238.09,38.41v2.34h2.08a1.74,1.74,0,0,1,1.31.55,1.8,1.8,0,0,1,.54,1.32,1.82,1.82,0,0,1-.54,1.33,1.74,1.74,0,0,1-1.31.55h-2.54a.45.45,0,0,1-.32-.14.45.45,0,0,1-.14-.33V38.39a.45.45,0,0,1,.14-.32.44.44,0,0,1,.32-.13.44.44,0,0,1,.33.13A.48.48,0,0,1,238.09,38.41Zm2.08,5.15a.9.9,0,0,0,.66-.27,1,1,0,0,0,0-1.33.9.9,0,0,0-.66-.27h-2.08v1.87Z" transform="translate(-3.42 -2.55)"/><path class="cls-1" d="M248,42.91a.44.44,0,0,1,.33.13.45.45,0,0,1,.14.33.49.49,0,0,1-.14.34,3.2,3.2,0,0,1-4.39-.17,3.31,3.31,0,0,1,0-4.64,3.2,3.2,0,0,1,4.57,0,3.19,3.19,0,0,1,.95,2.32.45.45,0,0,1-.14.33.45.45,0,0,1-.32.14h-5.05a2.32,2.32,0,0,0,.64,1.19,2.22,2.22,0,0,0,1.63.68,2.11,2.11,0,0,0,1.49-.56A.52.52,0,0,1,248,42.91Zm.49-2.16a2.3,2.3,0,0,0-3.9-1.19,2.29,2.29,0,0,0-.64,1.19Z" transform="translate(-3.42 -2.55)"/><path class="cls-1" d="M23.69,28.85l-.1.19a12,12,0,0,1-2.33,3.64c-.27.31-.48.67-.73,1a12.05,12.05,0,0,1-.79,1,.7.7,0,0,1-.74.15,9.11,9.11,0,0,1-1.24-.54c-1.39-.78-2.78-1.57-4.15-2.4A15.53,15.53,0,0,0,10,30.12c-.21-.07-.44-.11-.66-.16a.17.17,0,0,0-.24.12.37.37,0,0,1-.42.24,1.58,1.58,0,0,1-.38-.05,4.87,4.87,0,0,0-1.9-.15,1.35,1.35,0,0,1-.45,0,3.45,3.45,0,0,0-1.63,0,2.74,2.74,0,0,1-.7,0,.21.21,0,0,1-.2-.32,1.28,1.28,0,0,1,.3-.43,4.06,4.06,0,0,1,1.72-.83c.4-.09.8-.19,1.21-.26a1.8,1.8,0,0,0,1.19-.75,2,2,0,0,1,.91-.69.66.66,0,0,1,.9.23,7,7,0,0,1,.47.85.58.58,0,0,0,.35.32c1.1.44,2.21.88,3.3,1.35a5.4,5.4,0,0,0,1.67.38,4.27,4.27,0,0,1,2,.74c.14.09.29.16.43.26s.28.06.39-.09a2.31,2.31,0,0,0,.42-1.18,18.36,18.36,0,0,1,.69-3.59.36.36,0,0,0,0-.27,3.49,3.49,0,0,1-.33-3.46,6.24,6.24,0,0,1,.44-.9.25.25,0,0,0,0-.32c-.26-.32-.24-.31,0-.65a5.5,5.5,0,0,0,1-3.14,12.32,12.32,0,0,1,.33-2.76c.1-.5.15-1,.22-1.56-.54.12-1,.25-1.47.32-.69.11-1.38.18-2.06.27-.12,0-.21,0-.25.17-.28.94-.54,1.9-.87,2.82a7.22,7.22,0,0,0-.24,3.13.8.8,0,0,0,.28.47.76.76,0,0,1,.26,1.05c-.06.2-.08.42-.15.61s-.13.32-.36.23a.15.15,0,0,0-.12,0,.3.3,0,0,1-.36,0s-.12,0-.19,0-.21,0-.31-.06-.09-.06-.14-.07c-.31-.05-.44-.16-.42-.5a6.66,6.66,0,0,1,.19-1.34,4.48,4.48,0,0,0,.11-1.63,12.83,12.83,0,0,1,.37-4.82c.07-.24.15-.47.24-.71a1.26,1.26,0,0,1,.57-.71c1-.53,2-1,3-1.55.3-.15.65-.2,1-.32a1.52,1.52,0,0,0,.53-.29,3.57,3.57,0,0,1,2.47-1,.61.61,0,0,0,.32-.13,3.51,3.51,0,0,1,1.09-.68A.81.81,0,0,0,25,7.51a3.09,3.09,0,0,0-.23-1.28,2,2,0,0,1-.13-1.32,3.12,3.12,0,0,1,.69-1.51,2.37,2.37,0,0,1,2.26-.68,9.18,9.18,0,0,1,1.23.3.51.51,0,0,1,.44.52.37.37,0,0,0,.1.21,1.92,1.92,0,0,1,.45,1.36,2.37,2.37,0,0,0,.17.77c.05.18.14.34.21.52s.1.31-.16.44-.15.25-.12.41a.91.91,0,0,1-.12.64.93.93,0,0,0-.12.39c0,.41-.06.54-.47.58s-.72,0-1.08,0c-.13,0-.25,0-.3.15s0,.24.14.31a3.53,3.53,0,0,0,.64.33A2.06,2.06,0,0,1,30,12.39a4.47,4.47,0,0,0-.21,1.78,8.92,8.92,0,0,1-.17,1.77c0,.18,0,.24.19.28a5,5,0,0,0,1.71.29c.41-.05.81-.15,1.21-.23A.27.27,0,0,0,33,16a1.1,1.1,0,0,1,.07-.36.6.6,0,0,1,.55-.42,4.86,4.86,0,0,0,.66-.15l.4-.06a.65.65,0,0,1,.2,0,2.62,2.62,0,0,1,.45.67,2.36,2.36,0,0,1,.11.79c0,.34,0,.57-.34.66s-.75.17-1.12.26c-.8.2-1.6.35-2.38.6a14.78,14.78,0,0,1-2.62.58,1.48,1.48,0,0,1-1.39-.8l-.27-.51a3.38,3.38,0,0,0-.19.39c-.27.85-.53,1.71-.81,2.56-.16.48-.34,1-.52,1.44a1.05,1.05,0,0,0-.06.24,2.8,2.8,0,0,1-.28,1.27c-.05.12-.07.22.05.32a21,21,0,0,1,3.45,3.6c.52.64,1,1.35,1.46,2A6.4,6.4,0,0,0,31,30a1.52,1.52,0,0,1,.53,1.17A11,11,0,0,0,31.78,34a46.77,46.77,0,0,0,1.67,5.56,8.18,8.18,0,0,0,.39,1,3.66,3.66,0,0,0,.54.65.16.16,0,0,0,.27,0s.16,0,.22,0a.88.88,0,0,1,.25.22,3,3,0,0,0,2.91.9,3.83,3.83,0,0,1,1.07-.05.46.46,0,0,1,.4.66,2,2,0,0,1-.52.69,4.91,4.91,0,0,1-2.59,1.14,2.89,2.89,0,0,1-.72,0,4.22,4.22,0,0,0-1.5.11,6.47,6.47,0,0,1-.87.11.87.87,0,0,1-1-.93,5.21,5.21,0,0,1,0-1,3.13,3.13,0,0,0-.38-1.68c-.39-1.06-.79-2.11-1.24-3.14a13,13,0,0,0-.78-1.34c-.29-.49-.6-1-.85-1.47a4.19,4.19,0,0,1-.34-1.76c0-.5-.06-1-.09-1.49a1,1,0,0,0-.55-.85,13.61,13.61,0,0,0-1.46-.66A8.2,8.2,0,0,1,23.94,29,1.8,1.8,0,0,0,23.69,28.85Z" transform="translate(-3.42 -2.55)"/></svg>